HIERARCHY
ROOT Bip001_Pelvis
{
  OFFSET 7.937 94.8971 -8.5489
  CHANNELS 6 Xposition Yposition Zposition Zrotation Xrotation Yrotation
  JOINT Bip001_Spine
  {
    OFFSET 1.44608e-005 10.4157 -0.0118244
    CHANNELS 3 Zrotation Xrotation Yrotation
    JOINT Bip001_L_Thigh
    {
      OFFSET 11.2582 -10.4157 0.0118432
      CHANNELS 3 Zrotation Xrotation Yrotation
      JOINT Bip001_L_Calf
      {
        OFFSET -0.720717 -44.8687 0.366937
        CHANNELS 3 Zrotation Xrotation Yrotation
        JOINT Bip001_L_Foot
        {
          OFFSET -0.664439 -41.3745 -3.62995
          CHANNELS 3 Zrotation Xrotation Yrotation
          JOINT Bip001_L_Toe0
          {
            OFFSET 0.0541047 -10.4146 13.4033
            CHANNELS 3 Zrotation Xrotation Yrotation
            End Site
            {
              OFFSET -1.04503e-005 0 7.70137
            }
          }
        }
      }
    }
    JOINT Bip001_R_Thigh
    {
      OFFSET -11.2582 -10.4156 0.0118122
      CHANNELS 3 Zrotation Xrotation Yrotation
      JOINT Bip001_R_Calf
      {
        OFFSET 0.72059 -44.8687 0.36676
        CHANNELS 3 Zrotation Xrotation Yrotation
        JOINT Bip001_R_Foot
        {
          OFFSET 0.664321 -41.3745 -3.62979
          CHANNELS 3 Zrotation Xrotation Yrotation
          JOINT Bip001_R_Toe0
          {
            OFFSET -0.05417 -10.4146 13.4033
            CHANNELS 3 Zrotation Xrotation Yrotation
            End Site
            {
              OFFSET -1.04873e-005 0 7.70137
            }
          }
        }
      }
    }
    JOINT Bip001_Spine1
    {
      OFFSET 1.90638e-005 14.8539 1.10727
      CHANNELS 3 Zrotation Xrotation Yrotation
      JOINT Bip001_Spine2
      {
        OFFSET 2.28934e-005 14.7848 -1.7233
        CHANNELS 3 Zrotation Xrotation Yrotation
        JOINT Bip001_Neck
        {
          OFFSET 2.24514e-005 15.6905 -0.498826
          CHANNELS 3 Zrotation Xrotation Yrotation
          JOINT Bip001_L_Clavicle
          {
            OFFSET 6.17691 -0.000591152 0.00852867
            CHANNELS 3 Zrotation Xrotation Yrotation
            JOINT Bip001_L_UpperArm
            {
              OFFSET 11.773 -0.0611878 0.00197697
              CHANNELS 3 Zrotation Xrotation Yrotation
              JOINT Bip001_L_Forearm
              {
                OFFSET 26.4515 0.0817568 -2.19579
                CHANNELS 3 Zrotation Xrotation Yrotation
                JOINT Bip001_L_Hand
                {
                  OFFSET 32.8677 0.156744 1.67112
                  CHANNELS 3 Zrotation Xrotation Yrotation
                  JOINT Bip001_L_Finger0
                  {
                    OFFSET 6.16268 -2.25226 6.01674
                    CHANNELS 3 Zrotation Xrotation Yrotation
                    End Site
                    {
                      OFFSET 4.30499 -1.46662 0.618148
                    }
                  }
                  JOINT Bip001_L_Finger1
                  {
                    OFFSET 11.2957 -0.718374 -0.201963
                    CHANNELS 3 Zrotation Xrotation Yrotation
                    End Site
                    {
                      OFFSET 6.31952 -0.405163 -0.0802303
                    }
                  }
                }
              }
            }
          }
          JOINT Bip001_R_Clavicle
          {
            OFFSET -6.17691 -0.000574027 0.00851165
            CHANNELS 3 Zrotation Xrotation Yrotation
            JOINT Bip001_R_UpperArm
            {
              OFFSET -11.773 -0.0611516 0.00194365
              CHANNELS 3 Zrotation Xrotation Yrotation
              JOINT Bip001_R_Forearm
              {
                OFFSET -26.4514 0.0822334 -2.19736
                CHANNELS 3 Zrotation Xrotation Yrotation
                JOINT Bip001_R_Hand
                {
                  OFFSET -32.8677 0.156817 1.67144
                  CHANNELS 3 Zrotation Xrotation Yrotation
                  JOINT Bip001_R_Finger0
                  {
                    OFFSET -6.1627 -2.25224 6.0167
                    CHANNELS 3 Zrotation Xrotation Yrotation
                    End Site
                    {
                      OFFSET -4.30499 -1.46662 0.618134
                    }
                  }
                  JOINT Bip001_R_Finger1
                  {
                    OFFSET -11.2958 -0.718344 -0.201994
                    CHANNELS 3 Zrotation Xrotation Yrotation
                    End Site
                    {
                      OFFSET -6.31952 -0.405146 -0.0802475
                    }
                  }
                }
              }
            }
          }
          JOINT Bip001_Head
          {
            OFFSET 1.11782e-005 11.4912 2.09908
            CHANNELS 3 Zrotation Xrotation Yrotation
            End Site
            {
              OFFSET 2.95144e-005 21.2823 -2.83069e-005
            }
          }
        }
      }
    }
  }
}
MOTION
Frames:	14
Frame Time:	0.04
4.90421 90.2106 -7.82664 4.16173 -1.83564 18.3894 -0.204305 0.7795 0.67925 3.12011 -19.7017 3.93281 1.08287 36.2868 -10.793 -3.02782 -14.5315 -5.45277 0.719798 -9.74648 1.28242 -9.68091 -12.2798 0.663903 5.00439 42.2858 -2.24686 -8.25089 -23.5779 -23.9713 5.14667 -11.4791 -4.4981 0.653969 1.56272 1.31467 0.653871 1.56271 1.31501 7.49864 -5.82342 -10.2041 -30.5655 7.08643 -9.46581 -56.5819 31.9198 18.607 25.1734 3.74454 -43.4197 4.02599 1.27029 -2.66516 -9.54166e-015 -3.18055e-015 -0 -6.36111e-015 -6.36111e-015 -0 14.0719 13.0381 20.5487 23.0228 -28.7954 41.6334 -30.5427 0.115093 47.5673 -48.4099 -0.360891 -4.80586 3.18055e-015 -1.59028e-015 -5.1684e-015 3.18055e-015 -1.59028e-015 -2.78299e-015 -8.99188 1.74664 -5.87262 
4.23688 91.6379 -7.76224 3.76964 -1.59549 19.9536 -0.167835 0.7698 0.557596 2.81092 -17.6621 4.61948 3.07037 30.4571 -12.6184 -4.48638 -11.3413 -6.22339 0.729626 -9.73983 1.12033 -8.72041 -10.012 0.879253 5.02415 37.0608 -2.92047 -7.98561 -20.9047 -24.7399 4.37849 -11.434 -4.18681 0.583346 1.5425 1.07869 0.583603 1.54243 1.07871 7.44074 -5.30092 -10.2502 -30.0892 6.53319 -9.37035 -57.8264 31.282 20.6788 25.2247 6.04699 -42.097 2.88945 1.39188 -2.53957 -1.76556e-031 -3.18055e-015 -3.18055e-015 3.18055e-015 -6.36111e-015 -6.36111e-015 16.161 12.5245 18.5229 26.1463 -31.8381 42.7424 -32.8775 4.07735 51.3606 -49.9834 3.65304 -4.44194 0 0 -3.97569e-015 -4.41391e-032 -1.59028e-015 -1.59028e-015 -9.19353 1.51123 -5.88502 
3.81562 92.8099 -7.7008 3.55 -1.41006 20.2938 -0.0463047 0.770344 0.363528 2.58984 -15.3432 5.21286 3.84059 24.8521 -12.1078 -5.8662 -8.36211 -7.25004 0.833063 -9.73661 0.916197 -8.28084 -8.16254 0.651114 4.49293 32.4495 -2.51296 -7.61757 -18.515 -24.7325 3.68871 -11.3999 -3.8133 0.706359 1.54277 0.700173 0.706358 1.54277 0.700167 6.06029 -4.60909 -9.5572 -29.0406 6.25982 -9.21635 -59.4663 31.6865 22.975 24.9773 7.34343 -39.8396 0.407858 1.21729 -2.39829 -8.82781e-032 -3.18055e-015 -1.59028e-015 0 0 -3.18055e-015 17.5516 11.7661 17.7824 34.279 -36.1105 40.5948 -39.4287 4.71251 63.4472 -47.9574 4.3163 -4.69094 3.18055e-015 -3.18055e-015 -7.55382e-015 1.59028e-015 -4.77083e-015 -5.96354e-015 -8.74577 1.19474 -5.66918 
3.49849 93.7335 -7.67043 3.09149 -1.41134 19.7153 0.139847 0.768461 0.23053 3.14024 -13.2487 6.38983 3.48998 20.3568 -11.0136 -6.34812 -5.87062 -8.00523 0.774976 -9.8449 0.564853 -7.90299 -6.53616 -0.118898 3.85807 28.1608 -2.16324 -6.79717 -16.3889 -23.4736 2.70664 -11.3842 -3.18049 0.877442 1.53887 0.443891 0.877479 1.53887 0.444006 4.99229 -3.99244 -8.78274 -28.47 6.11592 -9.48906 -60.9623 32.4059 25.4187 24.6537 8.93837 -37.2018 -3.17561 0.861455 -2.68966 1.59028e-015 3.18055e-015 -0 1.76556e-031 6.36111e-015 -1.59028e-015 19.2967 11.1975 17.0267 39.1156 -40.8434 39.1879 -40.4546 6.08233 72.767 -50.3986 5.07777 -4.61209 7.95139e-016 -3.18055e-015 6.95746e-016 2.38542e-015 -1.59028e-015 1.88845e-015 -8.49241 1.02091 -5.25131 
3.29663 94.3532 -7.72845 2.57138 -1.30792 18.2438 0.248869 0.752328 0.216459 3.95281 -11.7124 7.33474 2.63866 17.1818 -9.81666 -6.36653 -4.21305 -7.98662 0.711434 -9.91018 0.352456 -7.22378 -5.73256 -0.874821 2.48461 25.011 -1.25175 -5.66803 -14.7176 -21.9024 1.86071 -11.3604 -2.6503 0.915431 1.50634 0.425259 0.915528 1.50635 0.425564 3.80792 -3.69818 -7.91938 -27.4373 6.17271 -9.37408 -62.4549 34.0093 27.0993 24.3377 11.0548 -34.1297 -6.74927 0.535476 -3.88573 -3.18055e-015 3.18055e-015 7.95139e-016 -4.77083e-015 3.18056e-015 -7.95139e-016 22.5808 11.1247 15.6799 39.809 -44.121 36.0316 -42.8172 6.30699 80.954 -51.5741 7.19275 -5.74366 -7.95139e-016 -2.38542e-015 -4.69629e-015 -7.95139e-016 -1.59028e-015 -3.2551e-015 -7.84515 1.02995 -4.86765 
3.19067 94.7923 -7.84182 2.10957 -1.15575 16.2932 0.277501 0.741651 0.323369 4.7505 -10.4946 7.28978 1.58192 14.8322 -7.38958 -6.31412 -3.02345 -8.00943 0.676762 -9.95635 0.214939 -6.74906 -5.40014 -0.0633483 2.18411 22.5283 -1.34815 -4.94116 -13.263 -20.8645 1.17071 -11.3308 -2.20235 0.821808 1.48568 0.645754 0.821804 1.48567 0.645744 3.76156 -3.58446 -7.46667 -27.1071 6.2385 -9.71624 -63.6603 34.6341 27.7698 22.3853 11.8922 -30.8945 -10.0647 0.120453 -4.12148 -1.19271e-015 1.27222e-014 -1.59028e-015 -3.97569e-016 1.59028e-014 -9.93923e-016 24.5731 10.8241 13.8355 37.1104 -43.3078 29.8231 -42.6628 3.77194 86.1485 -53.0527 7.73509 -4.70007 -3.97569e-016 -3.97569e-016 3.80176e-015 4.82771e-032 -3.97569e-016 6.95746e-015 -8.0277 0.795091 -4.41248 
3.27243 95.144 -7.83991 1.79346 -1.42746 14.4592 0.376416 0.790429 0.272203 5.29369 -8.99916 7.34386 0.740016 12.9331 -5.53074 -6.12329 -2.22755 -7.67579 0.646838 -9.99889 0.0761722 -6.63374 -4.5438 0.113058 1.94292 20.1269 -1.13859 -4.17963 -12.0029 -19.4245 0.483797 -11.2907 -1.77757 0.870071 1.58295 0.542674 0.869669 1.58295 0.54263 3.22118 -3.24891 -6.69571 -27.1998 6.30051 -10.1454 -64.1169 34.8406 28.027 19.8369 11.6698 -27.8173 -12.3645 -0.29159 -3.63114 -3.97569e-016 -9.54166e-015 3.97569e-016 2.20695e-032 -6.36111e-015 1.98785e-016 26.2133 10.2477 12.6053 33.2495 -40.455 21.4209 -42.8773 1.85499 89.1726 -54.7115 6.67318 -3.33643 -7.95139e-016 3.97569e-016 3.2054e-015 -1.59028e-015 5.96354e-016 -5.2181e-016 -7.76043 0.816264 -3.86182 
3.45435 95.4456 -7.80193 1.47971 -1.6635 12.7212 0.480362 0.895324 0.0527485 5.67733 -7.64595 7.86405 0.145176 11.2307 -4.30673 -5.89017 -1.60123 -7.18033 0.616918 -10.0387 -0.0653595 -6.67862 -3.72706 0.123451 1.81312 17.7771 -0.993873 -3.44588 -10.8628 -17.7811 -0.131815 -11.2535 -1.32866 0.962681 1.7911 0.100544 0.962932 1.79111 0.100874 2.21139 -3.23464 -5.44892 -26.7877 6.65483 -10.0213 -63.8347 34.6212 26.6591 17.2611 10.8845 -24.9934 -13.5978 -0.665651 -2.42319 7.95139e-016 -3.18055e-015 -1.98785e-015 -1.76556e-031 -6.36111e-015 -1.59028e-015 27.8882 10.0153 11.8501 29.4118 -36.0636 11.9059 -42.5162 0.643766 91.2479 -52.4889 5.58568 -1.91188 -2.47743e-032 -2.36057e-016 -6.01324e-015 -1.59028e-015 -4.96962e-017 -4.00986e-015 -7.09698 0.75749 -3.07559 
3.66898 95.6274 -7.75876 1.08485 -1.91777 10.6545 0.542326 0.990063 -0.00387141 6.16363 -6.66801 8.50821 -0.324967 10.5104 -3.32834 -5.67489 -1.59201 -6.61319 0.620835 -10.0479 -0.0824161 -6.56715 -3.23311 -0.0164883 1.49859 16.1051 -0.589932 -2.7274 -10.1392 -16.0891 -0.643294 -11.2253 -0.918651 1.02397 1.97999 -0.0308945 1.02399 1.97999 -0.0309759 1.52251 -2.75913 -4.60097 -26.6734 6.67448 -10.7525 -63.5558 34.6353 25.3992 15.4563 9.37293 -22.8725 -13.9376 -0.93478 -1.57816 2.64834e-031 -6.36111e-015 2.38542e-015 -7.95139e-016 -6.36111e-015 1.59028e-015 29.7326 9.44566 11.2814 26.4227 -30.2688 3.15583 -41.734 1.14397 91.0311 -46.3546 3.38507 -0.886288 3.18055e-015 -1.78906e-015 -1.59028e-015 6.36111e-015 -1.39149e-015 -2.88238e-015 -6.51693 0.187622 -2.59898 
3.92191 95.7139 -7.7771 0.662809 -2.23869 8.45002 0.539784 1.09703 -0.01426 6.61335 -5.97669 8.36044 -0.699062 10.4718 -2.31213 -5.5237 -2.09211 -5.40748 0.658686 -9.96628 0.0222233 -6.47483 -3.06943 0.151233 1.44769 15.0892 -0.191819 -2.04267 -9.51933 -14.6708 -1.01822 -11.2271 -0.513322 0.96263 2.19388 -0.040136 0.962639 2.19389 -0.0384196 1.43559 -2.38969 -3.98546 -26.7363 6.607 -11.3092 -63.4747 35.691 23.8085 14.309 7.73476 -21.2508 -12.8582 -0.956884 -0.820465 1.32417e-031 9.54166e-015 -7.95139e-016 -7.95139e-016 9.54167e-015 -7.95139e-016 30.7219 8.90195 10.7141 26.3889 -22.9334 -3.16269 -37.1806 3.50584 87.7127 -35.5006 2.73463 -0.423189 -1.27222e-014 1.98785e-015 3.97569e-015 -9.54166e-015 -1.59028e-015 -0 -6.25907 -0.27488 -2.11051 
4.24765 95.7153 -7.78344 0.525284 -2.46672 6.09972 0.47158 1.18635 -0.0153708 6.66208 -5.39782 9.03651 -0.663116 10.7084 -1.83895 -5.42027 -2.7399 -4.50731 0.6524 -9.90929 0.243467 -6.6714 -3.41213 -0.372396 1.15349 15.0793 0.643898 -1.24047 -9.3953 -12.7841 -1.3645 -11.2303 -0.171951 0.775835 2.37254 -0.0437073 0.775826 2.37254 -0.043956 1.03379 -1.98771 -3.16334 -26.5875 6.57677 -11.8743 -62.489 36.503 21.0239 12.7509 6.16439 -19.7489 -9.86756 -0.734592 0.289696 3.97569e-016 0 2.38542e-015 -0 0 1.59028e-015 31.2461 8.31927 10.6092 29.1932 -13.9395 -7.44352 -30.9408 4.91872 81.0645 -19.4805 4.20325 -4.87318 -0 -3.18055e-015 -0 -1.59028e-015 -7.55382e-015 -0 -5.47509 -0.803108 -1.61846 
4.54769 95.6569 -7.93201 0.144893 -2.78227 3.8679 0.438946 1.27926 -0.0320598 6.92503 -5.30568 8.70096 -0.770691 11.7899 -1.32333 -5.30565 -3.79403 -2.80447 0.708366 -9.83002 0.511108 -6.53427 -3.89308 -0.900179 0.698023 15.2894 1.70668 -0.697658 -9.14584 -11.1358 -1.45763 -11.2794 0.043502 0.689473 2.55824 -0.0763512 0.689474 2.55825 -0.0763529 0.740252 -1.74296 -2.34816 -26.7141 6.75278 -12.5366 -61.4283 37.5127 18.499 12.6395 5.96144 -19.4902 -7.15648 -0.326072 0.776129 4.22417e-016 -6.36111e-015 1.3418e-015 4.22417e-016 3.18056e-015 1.16786e-015 31.578 7.85344 10.4561 33.83 0.893788 -9.42444 -16.4563 -2.04666 70.875 -4.02528 3.06585 -14.4304 3.18055e-015 5.56597e-015 1.27222e-014 4.77083e-015 5.56597e-015 1.27222e-014 -4.83961 -1.19703 -1.05828 
4.83903 95.607 -8.06815 -0.224693 -3.14109 1.50953 0.404696 1.37061 -0.0523602 7.18159 -4.99406 8.83067 -0.86269 12.6511 -0.586106 -5.22249 -4.69731 -1.63967 0.753554 -9.75675 0.758266 -6.29344 -4.36294 -0.219147 0.438118 15.4807 2.69073 -0.551686 -8.77702 -10.4567 -1.34929 -11.3482 0.148024 0.623718 2.74086 -0.117959 0.623562 2.74086 -0.117965 0.297498 -1.36344 -1.37911 -27.1009 6.99338 -13.5121 -59.9548 39.749 16.398 13.0979 6.11455 -19.9848 -5.38252 -0.1172 -0.903974 0 3.18055e-015 -0 0 0 -0 32.0457 7.33373 10.6271 38.914 14.1449 -9.65069 -0.803787 -15.59 61.467 7.29015 -0.813798 -25.0284 -3.53112e-031 3.18055e-015 6.36111e-015 -1.59028e-015 4.77083e-015 3.18055e-015 -4.25522 -1.7858 -0.381535 
5.11675 95.5645 -8.13523 -0.460492 -3.47687 -0.63169 0.33868 1.44029 -0.130451 7.34943 -4.49449 9.44113 -0.976247 13.1774 -0.126935 -5.09966 -5.38374 -0.752514 0.784952 -9.70423 0.94391 -6.16792 -4.73397 -0.0187569 0.0621909 15.6932 3.64279 -0.244269 -8.54983 -9.36668 -1.33092 -11.3878 0.238983 0.486327 2.87997 -0.273544 0.486326 2.87996 -0.273544 0.0796676 -1.01968 -0.385527 -27.4343 7.15602 -14.2475 -58.5434 41.8991 14.9222 13.6322 5.07471 -21.8174 -3.22755 -0.17843 -2.76849 1.59028e-015 3.18055e-015 -7.95139e-016 -2.20695e-032 3.18056e-015 3.97569e-016 32.1092 6.75271 10.6705 42.4895 25.2509 -7.63891 7.48658 -28.2647 48.9175 14.4248 -3.23046 -30.2261 -5.96354e-016 1.59028e-015 -7.95139e-016 -7.95139e-016 -1.59028e-015 -0 -3.96072 -2.16447 0.456659 
